<svg width="258" height="158" viewBox="0 0 258 158" fill="none" xmlns="http://www.w3.org/2000/svg">
<g filter="url(#filter0_d)">
<g filter="url(#filter1_d)">
<rect x="4" width="250" height="150" rx="5" fill="white"/>
</g>
<path d="M57.1359 54.6L50.4699 70H46.9499L40.3059 54.6H44.1559L48.8419 65.6L53.5939 54.6H57.1359ZM65.6863 70.264C64.0877 70.264 62.643 69.9193 61.3523 69.23C60.0763 68.5407 59.0717 67.5947 58.3383 66.392C57.6197 65.1747 57.2603 63.8107 57.2603 62.3C57.2603 60.7893 57.6197 59.4327 58.3383 58.23C59.0717 57.0127 60.0763 56.0593 61.3523 55.37C62.643 54.6807 64.0877 54.336 65.6863 54.336C67.285 54.336 68.7223 54.6807 69.9983 55.37C71.2743 56.0593 72.279 57.0127 73.0123 58.23C73.7457 59.4327 74.1123 60.7893 74.1123 62.3C74.1123 63.8107 73.7457 65.1747 73.0123 66.392C72.279 67.5947 71.2743 68.5407 69.9983 69.23C68.7223 69.9193 67.285 70.264 65.6863 70.264ZM65.6863 67.228C66.5957 67.228 67.417 67.0227 68.1503 66.612C68.8837 66.1867 69.4557 65.6 69.8663 64.852C70.2917 64.104 70.5043 63.2533 70.5043 62.3C70.5043 61.3467 70.2917 60.496 69.8663 59.748C69.4557 59 68.8837 58.4207 68.1503 58.01C67.417 57.5847 66.5957 57.372 65.6863 57.372C64.777 57.372 63.9557 57.5847 63.2223 58.01C62.489 58.4207 61.9097 59 61.4843 59.748C61.0737 60.496 60.8683 61.3467 60.8683 62.3C60.8683 63.2533 61.0737 64.104 61.4843 64.852C61.9097 65.6 62.489 66.1867 63.2223 66.612C63.9557 67.0227 64.777 67.228 65.6863 67.228ZM76.7908 54.6H80.3548V70H76.7908V54.6ZM93.8216 70L90.8516 65.71H90.6756H87.5736V70H84.0096V54.6H90.6756C92.0396 54.6 93.2203 54.8273 94.2176 55.282C95.2296 55.7367 96.0069 56.382 96.5496 57.218C97.0923 58.054 97.3636 59.044 97.3636 60.188C97.3636 61.332 97.0849 62.322 96.5276 63.158C95.9849 63.9793 95.2076 64.61 94.1956 65.05L97.6496 70H93.8216ZM93.7556 60.188C93.7556 59.3227 93.4769 58.6627 92.9196 58.208C92.3623 57.7387 91.5483 57.504 90.4776 57.504H87.5736V62.872H90.4776C91.5483 62.872 92.3623 62.6373 92.9196 62.168C93.4769 61.6987 93.7556 61.0387 93.7556 60.188ZM109.608 57.504H104.68V54.6H118.1V57.504H113.172V70H109.608V57.504ZM127.261 70.264C125.662 70.264 124.217 69.9193 122.927 69.23C121.651 68.5407 120.646 67.5947 119.913 66.392C119.194 65.1747 118.835 63.8107 118.835 62.3C118.835 60.7893 119.194 59.4327 119.913 58.23C120.646 57.0127 121.651 56.0593 122.927 55.37C124.217 54.6807 125.662 54.336 127.261 54.336C128.859 54.336 130.297 54.6807 131.573 55.37C132.849 56.0593 133.853 57.0127 134.587 58.23C135.32 59.4327 135.687 60.7893 135.687 62.3C135.687 63.8107 135.32 65.1747 134.587 66.392C133.853 67.5947 132.849 68.5407 131.573 69.23C130.297 69.9193 128.859 70.264 127.261 70.264ZM127.261 67.228C128.17 67.228 128.991 67.0227 129.725 66.612C130.458 66.1867 131.03 65.6 131.441 64.852C131.866 64.104 132.079 63.2533 132.079 62.3C132.079 61.3467 131.866 60.496 131.441 59.748C131.03 59 130.458 58.4207 129.725 58.01C128.991 57.5847 128.17 57.372 127.261 57.372C126.351 57.372 125.53 57.5847 124.797 58.01C124.063 58.4207 123.484 59 123.059 59.748C122.648 60.496 122.443 61.3467 122.443 62.3C122.443 63.2533 122.648 64.104 123.059 64.852C123.484 65.6 124.063 66.1867 124.797 66.612C125.53 67.0227 126.351 67.228 127.261 67.228ZM145.207 70.264C143.007 70.264 141.291 69.6553 140.059 68.438C138.842 67.2207 138.233 65.4827 138.233 63.224V54.6H141.797V63.092C141.797 65.8493 142.941 67.228 145.229 67.228C146.344 67.228 147.194 66.898 147.781 66.238C148.368 65.5633 148.661 64.5147 148.661 63.092V54.6H152.181V63.224C152.181 65.4827 151.565 67.2207 150.333 68.438C149.116 69.6553 147.407 70.264 145.207 70.264ZM160.763 70.264C159.546 70.264 158.365 70.1027 157.221 69.78C156.092 69.4427 155.182 69.01 154.493 68.482L155.703 65.798C156.363 66.282 157.148 66.6707 158.057 66.964C158.966 67.2573 159.876 67.404 160.785 67.404C161.797 67.404 162.545 67.2573 163.029 66.964C163.513 66.656 163.755 66.2527 163.755 65.754C163.755 65.3873 163.608 65.0867 163.315 64.852C163.036 64.6027 162.67 64.4047 162.215 64.258C161.775 64.1113 161.174 63.95 160.411 63.774C159.238 63.4953 158.277 63.2167 157.529 62.938C156.781 62.6593 156.136 62.212 155.593 61.596C155.065 60.98 154.801 60.1587 154.801 59.132C154.801 58.2373 155.043 57.4307 155.527 56.712C156.011 55.9787 156.737 55.3993 157.705 54.974C158.688 54.5487 159.883 54.336 161.291 54.336C162.274 54.336 163.234 54.4533 164.173 54.688C165.112 54.9227 165.933 55.26 166.637 55.7L165.537 58.406C164.114 57.5993 162.692 57.196 161.269 57.196C160.272 57.196 159.531 57.3573 159.047 57.68C158.578 58.0027 158.343 58.428 158.343 58.956C158.343 59.484 158.614 59.88 159.157 60.144C159.714 60.3933 160.558 60.6427 161.687 60.892C162.86 61.1707 163.821 61.4493 164.569 61.728C165.317 62.0067 165.955 62.4467 166.483 63.048C167.026 63.6493 167.297 64.4633 167.297 65.49C167.297 66.37 167.048 67.1767 166.549 67.91C166.065 68.6287 165.332 69.2007 164.349 69.626C163.366 70.0513 162.171 70.264 160.763 70.264ZM190.087 54.6V70H187.161L179.483 60.65V70H175.963V54.6H178.911L186.567 63.95V54.6H190.087ZM201.188 70.264C199.59 70.264 198.145 69.9193 196.854 69.23C195.578 68.5407 194.574 67.5947 193.84 66.392C193.122 65.1747 192.762 63.8107 192.762 62.3C192.762 60.7893 193.122 59.4327 193.84 58.23C194.574 57.0127 195.578 56.0593 196.854 55.37C198.145 54.6807 199.59 54.336 201.188 54.336C202.787 54.336 204.224 54.6807 205.5 55.37C206.776 56.0593 207.781 57.0127 208.514 58.23C209.248 59.4327 209.614 60.7893 209.614 62.3C209.614 63.8107 209.248 65.1747 208.514 66.392C207.781 67.5947 206.776 68.5407 205.5 69.23C204.224 69.9193 202.787 70.264 201.188 70.264ZM201.188 67.228C202.098 67.228 202.919 67.0227 203.652 66.612C204.386 66.1867 204.958 65.6 205.368 64.852C205.794 64.104 206.006 63.2533 206.006 62.3C206.006 61.3467 205.794 60.496 205.368 59.748C204.958 59 204.386 58.4207 203.652 58.01C202.919 57.5847 202.098 57.372 201.188 57.372C200.279 57.372 199.458 57.5847 198.724 58.01C197.991 58.4207 197.412 59 196.986 59.748C196.576 60.496 196.37 61.3467 196.37 62.3C196.37 63.2533 196.576 64.104 196.986 64.852C197.412 65.6 197.991 66.1867 198.724 66.612C199.458 67.0227 200.279 67.228 201.188 67.228ZM217.353 70.264C216.135 70.264 214.955 70.1027 213.811 69.78C212.681 69.4427 211.772 69.01 211.083 68.482L212.293 65.798C212.953 66.282 213.737 66.6707 214.647 66.964C215.556 67.2573 216.465 67.404 217.375 67.404C218.387 67.404 219.135 67.2573 219.619 66.964C220.103 66.656 220.345 66.2527 220.345 65.754C220.345 65.3873 220.198 65.0867 219.905 64.852C219.626 64.6027 219.259 64.4047 218.805 64.258C218.365 64.1113 217.763 63.95 217.001 63.774C215.827 63.4953 214.867 63.2167 214.119 62.938C213.371 62.6593 212.725 62.212 212.183 61.596C211.655 60.98 211.391 60.1587 211.391 59.132C211.391 58.2373 211.633 57.4307 212.117 56.712C212.601 55.9787 213.327 55.3993 214.295 54.974C215.277 54.5487 216.473 54.336 217.881 54.336C218.863 54.336 219.824 54.4533 220.763 54.688C221.701 54.9227 222.523 55.26 223.227 55.7L222.127 58.406C220.704 57.5993 219.281 57.196 217.859 57.196C216.861 57.196 216.121 57.3573 215.637 57.68C215.167 58.0027 214.933 58.428 214.933 58.956C214.933 59.484 215.204 59.88 215.747 60.144C216.304 60.3933 217.147 60.6427 218.277 60.892C219.45 61.1707 220.411 61.4493 221.159 61.728C221.907 62.0067 222.545 62.4467 223.073 63.048C223.615 63.6493 223.887 64.4633 223.887 65.49C223.887 66.37 223.637 67.1767 223.139 67.91C222.655 68.6287 221.921 69.2007 220.939 69.626C219.956 70.0513 218.761 70.264 217.353 70.264ZM82.7854 97.264C81.5681 97.264 80.3874 97.1027 79.2434 96.78C78.1141 96.4427 77.2047 96.01 76.5154 95.482L77.7254 92.798C78.3854 93.282 79.1701 93.6707 80.0794 93.964C80.9887 94.2573 81.8981 94.404 82.8074 94.404C83.8194 94.404 84.5674 94.2573 85.0514 93.964C85.5354 93.656 85.7774 93.2527 85.7774 92.754C85.7774 92.3873 85.6307 92.0867 85.3374 91.852C85.0587 91.6027 84.6921 91.4047 84.2374 91.258C83.7974 91.1113 83.1961 90.95 82.4334 90.774C81.2601 90.4953 80.2994 90.2167 79.5514 89.938C78.8034 89.6593 78.1581 89.212 77.6154 88.596C77.0874 87.98 76.8234 87.1587 76.8234 86.132C76.8234 85.2373 77.0654 84.4307 77.5494 83.712C78.0334 82.9787 78.7594 82.3993 79.7274 81.974C80.7101 81.5487 81.9054 81.336 83.3134 81.336C84.2961 81.336 85.2567 81.4533 86.1954 81.688C87.1341 81.9227 87.9554 82.26 88.6594 82.7L87.5594 85.406C86.1367 84.5993 84.7141 84.196 83.2914 84.196C82.2941 84.196 81.5534 84.3573 81.0694 84.68C80.6001 85.0027 80.3654 85.428 80.3654 85.956C80.3654 86.484 80.6367 86.88 81.1794 87.144C81.7367 87.3933 82.5801 87.6427 83.7094 87.892C84.8827 88.1707 85.8434 88.4493 86.5914 88.728C87.3394 89.0067 87.9774 89.4467 88.5054 90.048C89.0481 90.6493 89.3194 91.4633 89.3194 92.49C89.3194 93.37 89.0701 94.1767 88.5714 94.91C88.0874 95.6287 87.3541 96.2007 86.3714 96.626C85.3887 97.0513 84.1934 97.264 82.7854 97.264ZM103.679 94.14V97H91.7547V81.6H103.393V84.46H95.2967V87.804H102.447V90.576H95.2967V94.14H103.679ZM116.326 97L113.356 92.71H113.18H110.078V97H106.514V81.6H113.18C114.544 81.6 115.725 81.8273 116.722 82.282C117.734 82.7367 118.512 83.382 119.054 84.218C119.597 85.054 119.868 86.044 119.868 87.188C119.868 88.332 119.59 89.322 119.032 90.158C118.49 90.9793 117.712 91.61 116.7 92.05L120.154 97H116.326ZM116.26 87.188C116.26 86.3227 115.982 85.6627 115.424 85.208C114.867 84.7387 114.053 84.504 112.982 84.504H110.078V89.872H112.982C114.053 89.872 114.867 89.6373 115.424 89.168C115.982 88.6987 116.26 88.0387 116.26 87.188ZM137.498 81.6L130.832 97H127.312L120.668 81.6H124.518L129.204 92.6L133.956 81.6H137.498ZM138.784 81.6H142.348V97H138.784V81.6ZM153.373 97.264C151.803 97.264 150.381 96.9267 149.105 96.252C147.843 95.5627 146.846 94.6167 146.113 93.414C145.394 92.1967 145.035 90.8253 145.035 89.3C145.035 87.7747 145.394 86.4107 146.113 85.208C146.846 83.9907 147.843 83.0447 149.105 82.37C150.381 81.6807 151.811 81.336 153.395 81.336C154.729 81.336 155.932 81.5707 157.003 82.04C158.088 82.5093 158.997 83.184 159.731 84.064L157.443 86.176C156.401 84.9733 155.111 84.372 153.571 84.372C152.617 84.372 151.767 84.5847 151.019 85.01C150.271 85.4207 149.684 86 149.259 86.748C148.848 87.496 148.643 88.3467 148.643 89.3C148.643 90.2533 148.848 91.104 149.259 91.852C149.684 92.6 150.271 93.1867 151.019 93.612C151.767 94.0227 152.617 94.228 153.571 94.228C155.111 94.228 156.401 93.6193 157.443 92.402L159.731 94.514C158.997 95.4087 158.088 96.0907 157.003 96.56C155.917 97.0293 154.707 97.264 153.373 97.264ZM174.062 94.14V97H162.138V81.6H173.776V84.46H165.68V87.804H172.83V90.576H165.68V94.14H174.062ZM181.957 97.264C180.74 97.264 179.559 97.1027 178.415 96.78C177.286 96.4427 176.377 96.01 175.687 95.482L176.897 92.798C177.557 93.282 178.342 93.6707 179.251 93.964C180.161 94.2573 181.07 94.404 181.979 94.404C182.991 94.404 183.739 94.2573 184.223 93.964C184.707 93.656 184.949 93.2527 184.949 92.754C184.949 92.3873 184.803 92.0867 184.509 91.852C184.231 91.6027 183.864 91.4047 183.409 91.258C182.969 91.1113 182.368 90.95 181.605 90.774C180.432 90.4953 179.471 90.2167 178.723 89.938C177.975 89.6593 177.33 89.212 176.787 88.596C176.259 87.98 175.995 87.1587 175.995 86.132C175.995 85.2373 176.237 84.4307 176.721 83.712C177.205 82.9787 177.931 82.3993 178.899 81.974C179.882 81.5487 181.077 81.336 182.485 81.336C183.468 81.336 184.429 81.4533 185.367 81.688C186.306 81.9227 187.127 82.26 187.831 82.7L186.731 85.406C185.309 84.5993 183.886 84.196 182.463 84.196C181.466 84.196 180.725 84.3573 180.241 84.68C179.772 85.0027 179.537 85.428 179.537 85.956C179.537 86.484 179.809 86.88 180.351 87.144C180.909 87.3933 181.752 87.6427 182.881 87.892C184.055 88.1707 185.015 88.4493 185.763 88.728C186.511 89.0067 187.149 89.4467 187.677 90.048C188.22 90.6493 188.491 91.4633 188.491 92.49C188.491 93.37 188.242 94.1767 187.743 94.91C187.259 95.6287 186.526 96.2007 185.543 96.626C184.561 97.0513 183.365 97.264 181.957 97.264Z" fill="#162D50"/>
</g>
<defs>
<filter id="filter0_d" x="0" y="0" width="258" height="158" filterUnits="userSpaceOnUse" color-interpolation-filters="sRGB">
<feFlood flood-opacity="0" result="BackgroundImageFix"/>
<feColorMatrix in="SourceAlpha" type="matrix" values="0 0 0 0 0 0 0 0 0 0 0 0 0 0 0 0 0 0 127 0"/>
<feOffset dy="4"/>
<feGaussianBlur stdDeviation="2"/>
<feColorMatrix type="matrix" values="0 0 0 0 0 0 0 0 0 0 0 0 0 0 0 0 0 0 0.25 0"/>
<feBlend mode="normal" in2="BackgroundImageFix" result="effect1_dropShadow"/>
<feBlend mode="normal" in="SourceGraphic" in2="effect1_dropShadow" result="shape"/>
</filter>
<filter id="filter1_d" x="0" y="0" width="258" height="158" filterUnits="userSpaceOnUse" color-interpolation-filters="sRGB">
<feFlood flood-opacity="0" result="BackgroundImageFix"/>
<feColorMatrix in="SourceAlpha" type="matrix" values="0 0 0 0 0 0 0 0 0 0 0 0 0 0 0 0 0 0 127 0"/>
<feOffset dy="4"/>
<feGaussianBlur stdDeviation="2"/>
<feColorMatrix type="matrix" values="0 0 0 0 0 0 0 0 0 0 0 0 0 0 0 0 0 0 0.25 0"/>
<feBlend mode="normal" in2="BackgroundImageFix" result="effect1_dropShadow"/>
<feBlend mode="normal" in="SourceGraphic" in2="effect1_dropShadow" result="shape"/>
</filter>
</defs>
</svg>
